<svg xmlns="http://www.w3.org/2000/svg" fill="none" viewBox="0 0 400 36" height="36" width="400">
<g clip-path="url(#clip0_1_10393)">
<path fill="#FFFAF2" d="M21.5084 0.59375C27.4999 0.59375 32.4227 2.3225 36.2769 5.77625C40.1349 9.22625 42.0639 13.2612 42.0639 17.8812C42.0639 22.6475 40.0925 26.7162 36.1535 30.0912C32.2183 33.4662 27.3359 35.1537 21.5084 35.1537C15.8236 35.1537 10.9721 33.4662 6.95592 30.0912C2.93779 26.7162 0.929688 22.6475 0.929688 17.8812C0.929688 13.1075 2.89728 9.03125 6.83247 5.65625C10.7676 2.28125 15.6596 0.59375 21.5084 0.59375ZM21.5778 1.56875C17.986 1.56875 15.1214 3.08188 12.9822 6.10625C10.841 9.1325 9.77228 13.0569 9.77228 17.8812C9.77228 22.6962 10.8795 26.6169 13.0979 29.6412C15.3201 32.6619 18.1461 34.1712 21.5778 34.1712C25.1581 34.1712 28.0169 32.6619 30.1581 29.6412C32.2974 26.6169 33.368 22.6962 33.368 17.8812C33.368 13.0569 32.2568 9.1325 30.0346 6.10625C27.8124 3.08188 24.9922 1.56875 21.5778 1.56875Z"></path>
<path fill="#FFFAF2" d="M46.9629 1.2832H70.358V2.1682C67.1365 2.1682 64.8815 2.54133 63.591 3.2857C62.3043 4.03195 61.662 6.12633 61.662 9.5707V33.6232H68.3518C72.3834 33.6232 75.5894 32.8188 77.966 31.2082C80.3425 29.5995 82.4124 25.8007 84.1774 19.8157H85.1573V34.5307H46.9629V33.6232C50.3425 33.6232 52.4374 33.0213 53.2515 31.8157C54.0694 30.612 54.4783 28.5382 54.4783 25.5982V9.5707C54.4783 6.70195 53.9845 4.75195 52.9968 3.7207C52.0092 2.6857 49.9972 2.1682 46.9629 2.1682V1.2832Z"></path>
<path fill="#FFFAF2" d="M104.75 2.1682V33.5557H110.29C117.018 33.5557 121.363 32.1119 123.322 29.2207C125.282 26.3313 126.262 22.9263 126.262 19.0057V17.2207C126.262 12.3457 125.047 8.6182 122.62 6.0382C120.197 3.4582 116.004 2.1682 110.043 2.1682H104.75ZM114.04 1.2832C120.701 1.2832 125.824 3.05133 129.41 6.5857C132.994 10.1163 134.788 13.8513 134.788 17.7907V18.8332C134.788 23.2488 132.861 26.9688 129.009 29.9932C125.155 33.0195 120.616 34.5307 115.39 34.5307H90.0508V33.6007C93.2182 33.6007 95.263 33.0607 96.185 31.9807C97.111 30.9007 97.5739 29.1963 97.5739 26.8657V8.9557C97.5739 6.62133 97.111 4.9132 96.185 3.8332C95.263 2.7532 93.2182 2.2132 90.0508 2.2132V1.2832H114.04Z"></path>
<path fill="#FFFAF2" d="M170.087 1.2832L183.027 26.6482L195.697 1.2832H209.215V2.2132C206.113 2.2132 204.099 2.7532 203.174 3.8332C202.251 4.9132 201.792 6.62133 201.792 8.9557V26.8657C201.792 29.1963 202.251 30.9007 203.174 31.9807C204.099 33.0607 206.113 33.6007 209.215 33.6007V34.5307H187.194V33.6007C190.459 33.6007 192.552 33.0607 193.474 31.9807C194.4 30.9007 194.863 29.1963 194.863 26.8657V5.0257L180.133 34.5307H179.13L164.231 4.9507V25.4332C164.231 27.7695 164.813 29.7138 165.982 31.2682C167.155 32.8244 169.047 33.6007 171.661 33.6007V34.5307H155.805V33.6007C158.417 33.6007 160.307 32.9032 161.476 31.5082C162.643 30.1095 163.228 28.2438 163.228 25.9132V8.9557C163.228 6.62133 162.765 4.9132 161.839 3.8332C160.917 2.7532 158.907 2.2132 155.805 2.2132V1.2832H170.087Z"></path>
<path fill="#FFFAF2" d="M234.819 0.59375C240.81 0.59375 245.733 2.3225 249.587 5.77625C253.445 9.22625 255.374 13.2612 255.374 17.8812C255.374 22.6475 253.403 26.7162 249.464 30.0912C245.529 33.4662 240.646 35.1537 234.819 35.1537C229.134 35.1537 224.283 33.4662 220.266 30.0912C216.248 26.7162 214.24 22.6475 214.24 17.8812C214.24 13.1075 216.208 9.03125 220.143 5.65625C224.078 2.28125 228.97 0.59375 234.819 0.59375ZM234.888 1.56875C231.297 1.56875 228.432 3.08188 226.293 6.10625C224.151 9.1325 223.083 13.0569 223.083 17.8812C223.083 22.6962 224.19 26.6169 226.408 29.6412C228.631 32.6619 231.457 34.1712 234.888 34.1712C238.469 34.1712 241.327 32.6619 243.469 29.6412C245.608 26.6169 246.679 22.6962 246.679 17.8812C246.679 13.0569 245.567 9.1325 243.345 6.10625C241.123 3.08188 238.303 1.56875 234.888 1.56875Z"></path>
<path fill="#FFFAF2" d="M260.32 1.2832H274.039L297.851 25.0282V13.2382C297.851 8.74945 297.081 5.78883 295.544 4.3582C294.01 2.92945 292.075 2.2132 289.741 2.2132V1.2832H306.647V2.2132C304.363 2.2132 302.48 2.8582 300.999 4.1482C299.521 5.43445 298.784 8.5432 298.784 13.4782V34.8607H297.951L268.429 5.4982V24.1732C268.429 28.4595 269.243 31.1013 270.875 32.1007C272.511 33.102 274.733 33.6007 277.542 33.6007V34.5307H259.656V33.6007C261.549 33.6007 263.329 33.1263 264.996 32.1757C266.662 31.2213 267.496 28.9413 267.496 25.3357V9.2407C267.496 6.38133 266.871 4.49695 265.621 3.5857C264.371 2.6707 262.604 2.2132 260.32 2.2132V1.2832Z"></path>
<path fill="#FFFAF2" d="M326.316 18.7657V33.6232H329.626C336.451 33.6232 341.077 32.427 343.5 30.0307C345.926 27.6307 347.527 24.552 348.299 20.7907H349.302V34.5307H311.91V33.6007C314.852 33.6007 316.783 33.0607 317.705 31.9807C318.631 30.9007 319.094 29.1963 319.094 26.8657V8.9557C319.094 6.62133 318.631 4.9132 317.705 3.8332C316.783 2.7532 314.852 2.2132 311.91 2.2132V1.2832H348.392V14.2132H347.558C346.123 9.18445 344.281 5.9182 342.034 4.4182C339.79 2.9182 335.996 2.1682 330.652 2.1682H326.316V17.8582C329.582 17.8582 332.082 17.0257 333.816 15.3607C335.548 13.692 336.563 11.0313 336.856 7.3807H337.759V29.2432H336.856C336.563 25.5944 335.548 22.9357 333.816 21.2707C332.082 19.602 329.582 18.7657 326.316 18.7657Z"></path>
<path fill="#FFFAF2" d="M353.613 1.2832H375.589V2.2132H373.482C372.041 2.2132 371.084 2.41383 370.612 2.8132C370.137 3.20883 369.902 3.73195 369.902 4.3807C369.902 4.82695 370.305 5.60133 371.113 6.7057C371.92 7.80633 373.135 9.38883 374.755 11.4532L380.072 18.5782L388.397 7.7857C388.694 7.29633 388.887 6.90445 388.976 6.6082C389.069 6.31383 389.123 6.0007 389.138 5.6707C389.138 4.41633 388.606 3.5257 387.541 3.0007C386.48 2.4757 384.643 2.2132 382.031 2.2132V1.2832H399.67V2.2132C398.251 2.2132 396.584 2.6782 394.67 3.6082C392.761 4.5382 390.967 6.08133 389.285 8.2357L380.442 19.7407V25.7632C380.442 29.1945 380.994 31.3582 382.101 32.2582C383.212 33.1544 385.5 33.6007 388.968 33.6007V34.5307H364.562V33.6007C368.692 33.6007 371.175 33.0044 372.008 31.8082C372.842 30.6082 373.258 28.5645 373.258 25.6732V20.4532L362.209 5.8582C361.54 4.92445 360.581 4.08445 359.331 3.3382C358.081 2.5882 356.175 2.2132 353.613 2.2132V1.2832Z"></path>
</g>
<defs>
<clipPath id="clip0_1_10393">
<rect fill="white" height="36" width="400"></rect>
</clipPath>
</defs>
</svg>
