<svg version="1.0" preserveAspectRatio="xMidYMid meet" height="100" viewBox="0 0 810 74.999997" zoomAndPan="magnify" width="1080" xmlns:xlink="http://www.w3.org/1999/xlink" xmlns="http://www.w3.org/2000/svg"><defs><g></g></defs><rect fill-opacity="1" height="89.999996" y="-7.5" fill="#ffffff" width="972" x="-81"></rect><rect fill-opacity="1" height="89.999996" y="-7.5" fill="#ffffff" width="972" x="-81"></rect><g fill-opacity="1" fill="#2a555a"><g transform="translate(-3.086961, 71.938315)"><g><path d="M 46.640625 -70.703125 C 58.773438 -70.703125 68.742188 -67.101562 76.546875 -59.90625 C 84.359375 -52.71875 88.265625 -44.3125 88.265625 -34.6875 C 88.265625 -24.757812 84.273438 -16.28125 76.296875 -9.25 C 68.328125 -2.21875 58.441406 1.296875 46.640625 1.296875 C 35.128906 1.296875 25.304688 -2.21875 17.171875 -9.25 C 9.035156 -16.28125 4.96875 -24.757812 4.96875 -34.6875 C 4.96875 -44.632812 8.953125 -53.125 16.921875 -60.15625 C 24.890625 -67.1875 34.796875 -70.703125 46.640625 -70.703125 Z M 46.78125 -68.671875 C 39.507812 -68.671875 33.707031 -65.519531 29.375 -59.21875 C 25.039062 -52.914062 22.875 -44.738281 22.875 -34.6875 C 22.875 -24.65625 25.117188 -16.488281 29.609375 -10.1875 C 34.109375 -3.894531 39.832031 -0.75 46.78125 -0.75 C 54.03125 -0.75 59.820312 -3.894531 64.15625 -10.1875 C 68.488281 -16.488281 70.65625 -24.65625 70.65625 -34.6875 C 70.65625 -44.738281 68.40625 -52.914062 63.90625 -59.21875 C 59.40625 -65.519531 53.695312 -68.671875 46.78125 -68.671875 Z M 46.78125 -68.671875"></path></g></g></g><g fill-opacity="1" fill="#2a555a"><g transform="translate(90.130322, 71.938315)"><g><path d="M 4.96875 -69.265625 L 52.34375 -69.265625 L 52.34375 -67.421875 C 45.820312 -67.421875 41.253906 -66.644531 38.640625 -65.09375 C 36.035156 -63.539062 34.734375 -59.175781 34.734375 -52 L 34.734375 -1.890625 L 48.28125 -1.890625 C 56.445312 -1.890625 62.9375 -3.566406 67.75 -6.921875 C 72.5625 -10.273438 76.753906 -18.1875 80.328125 -30.65625 L 82.3125 -30.65625 L 82.3125 0 L 4.96875 0 L 4.96875 -1.890625 C 11.8125 -1.890625 16.054688 -3.144531 17.703125 -5.65625 C 19.359375 -8.164062 20.1875 -12.484375 20.1875 -18.609375 L 20.1875 -52 C 20.1875 -57.976562 19.1875 -62.039062 17.1875 -64.1875 C 15.1875 -66.34375 11.113281 -67.421875 4.96875 -67.421875 Z M 4.96875 -69.265625"></path></g></g></g><g fill-opacity="1" fill="#2a555a"><g transform="translate(174.913898, 71.938315)"><g><path d="M 37.203125 -67.421875 L 37.203125 -2.03125 L 48.421875 -2.03125 C 62.046875 -2.03125 70.84375 -5.039062 74.8125 -11.0625 C 78.78125 -17.082031 80.765625 -24.175781 80.765625 -32.34375 L 80.765625 -36.0625 C 80.765625 -46.21875 78.304688 -53.984375 73.390625 -59.359375 C 68.484375 -64.734375 59.992188 -67.421875 47.921875 -67.421875 Z M 56.015625 -69.265625 C 69.503906 -69.265625 79.878906 -65.582031 87.140625 -58.21875 C 94.398438 -50.863281 98.03125 -43.082031 98.03125 -34.875 L 98.03125 -32.703125 C 98.03125 -23.503906 94.128906 -15.753906 86.328125 -9.453125 C 78.523438 -3.148438 69.332031 0 58.75 0 L 7.4375 0 L 7.4375 -1.9375 C 13.851562 -1.9375 17.992188 -3.0625 19.859375 -5.3125 C 21.734375 -7.5625 22.671875 -11.113281 22.671875 -15.96875 L 22.671875 -53.28125 C 22.671875 -58.144531 21.734375 -61.703125 19.859375 -63.953125 C 17.992188 -66.203125 13.851562 -67.328125 7.4375 -67.328125 L 7.4375 -69.265625 Z M 56.015625 -69.265625"></path></g></g></g><g fill-opacity="1" fill="#2a555a"><g transform="translate(277.160197, 71.938315)"><g></g></g></g><g fill-opacity="1" fill="#2a555a"><g transform="translate(311.788012, 71.938315)"><g><path d="M 32.640625 -69.265625 L 58.84375 -16.421875 L 84.5 -69.265625 L 111.875 -69.265625 L 111.875 -67.328125 C 105.59375 -67.328125 101.515625 -66.203125 99.640625 -63.953125 C 97.773438 -61.703125 96.84375 -58.144531 96.84375 -53.28125 L 96.84375 -15.96875 C 96.84375 -11.113281 97.773438 -7.5625 99.640625 -5.3125 C 101.515625 -3.0625 105.59375 -1.9375 111.875 -1.9375 L 111.875 0 L 67.28125 0 L 67.28125 -1.9375 C 73.894531 -1.9375 78.132812 -3.0625 80 -5.3125 C 81.875 -7.5625 82.8125 -11.113281 82.8125 -15.96875 L 82.8125 -61.46875 L 52.984375 0 L 50.953125 0 L 20.78125 -61.625 L 20.78125 -18.953125 C 20.78125 -14.085938 21.960938 -10.035156 24.328125 -6.796875 C 26.703125 -3.554688 30.535156 -1.9375 35.828125 -1.9375 L 35.828125 0 L 3.71875 0 L 3.71875 -1.9375 C 9.007812 -1.9375 12.835938 -3.390625 15.203125 -6.296875 C 17.566406 -9.210938 18.75 -13.097656 18.75 -17.953125 L 18.75 -53.28125 C 18.75 -58.144531 17.8125 -61.703125 15.9375 -63.953125 C 14.070312 -66.203125 10 -67.328125 3.71875 -67.328125 L 3.71875 -69.265625 Z M 32.640625 -69.265625"></path></g></g></g><g fill-opacity="1" fill="#2a555a"><g transform="translate(428.867729, 71.938315)"><g><path d="M 46.640625 -70.703125 C 58.773438 -70.703125 68.742188 -67.101562 76.546875 -59.90625 C 84.359375 -52.71875 88.265625 -44.3125 88.265625 -34.6875 C 88.265625 -24.757812 84.273438 -16.28125 76.296875 -9.25 C 68.328125 -2.21875 58.441406 1.296875 46.640625 1.296875 C 35.128906 1.296875 25.304688 -2.21875 17.171875 -9.25 C 9.035156 -16.28125 4.96875 -24.757812 4.96875 -34.6875 C 4.96875 -44.632812 8.953125 -53.125 16.921875 -60.15625 C 24.890625 -67.1875 34.796875 -70.703125 46.640625 -70.703125 Z M 46.78125 -68.671875 C 39.507812 -68.671875 33.707031 -65.519531 29.375 -59.21875 C 25.039062 -52.914062 22.875 -44.738281 22.875 -34.6875 C 22.875 -24.65625 25.117188 -16.488281 29.609375 -10.1875 C 34.109375 -3.894531 39.832031 -0.75 46.78125 -0.75 C 54.03125 -0.75 59.820312 -3.894531 64.15625 -10.1875 C 68.488281 -16.488281 70.65625 -24.65625 70.65625 -34.6875 C 70.65625 -44.738281 68.40625 -52.914062 63.90625 -59.21875 C 59.40625 -65.519531 53.695312 -68.671875 46.78125 -68.671875 Z M 46.78125 -68.671875"></path></g></g></g><g fill-opacity="1" fill="#2a555a"><g transform="translate(522.084999, 71.938315)"><g><path d="M 5.0625 -69.265625 L 32.84375 -69.265625 L 81.0625 -19.796875 L 81.0625 -44.359375 C 81.0625 -53.710938 79.503906 -59.878906 76.390625 -62.859375 C 73.285156 -65.835938 69.367188 -67.328125 64.640625 -67.328125 L 64.640625 -69.265625 L 98.875 -69.265625 L 98.875 -67.328125 C 94.25 -67.328125 90.4375 -65.984375 87.4375 -63.296875 C 84.445312 -60.617188 82.953125 -54.140625 82.953125 -43.859375 L 82.953125 0.6875 L 81.265625 0.6875 L 21.484375 -60.484375 L 21.484375 -21.578125 C 21.484375 -12.648438 23.132812 -7.144531 26.4375 -5.0625 C 29.75 -2.976562 34.25 -1.9375 39.9375 -1.9375 L 39.9375 0 L 3.71875 0 L 3.71875 -1.9375 C 7.550781 -1.9375 11.15625 -2.925781 14.53125 -4.90625 C 17.90625 -6.894531 19.59375 -11.644531 19.59375 -19.15625 L 19.59375 -52.6875 C 19.59375 -58.644531 18.328125 -62.570312 15.796875 -64.46875 C 13.265625 -66.375 9.6875 -67.328125 5.0625 -67.328125 Z M 5.0625 -69.265625"></path></g></g></g><g fill-opacity="1" fill="#2a555a"><g transform="translate(624.182456, 71.938315)"><g><path d="M 36.609375 -32.84375 L 36.609375 -1.890625 L 43.3125 -1.890625 C 57.132812 -1.890625 66.5 -4.382812 71.40625 -9.375 C 76.320312 -14.375 79.5625 -20.789062 81.125 -28.625 L 83.15625 -28.625 L 83.15625 0 L 7.4375 0 L 7.4375 -1.9375 C 13.394531 -1.9375 17.304688 -3.0625 19.171875 -5.3125 C 21.046875 -7.5625 21.984375 -11.113281 21.984375 -15.96875 L 21.984375 -53.28125 C 21.984375 -58.144531 21.046875 -61.703125 19.171875 -63.953125 C 17.304688 -66.203125 13.394531 -67.328125 7.4375 -67.328125 L 7.4375 -69.265625 L 81.3125 -69.265625 L 81.3125 -42.328125 L 79.625 -42.328125 C 76.71875 -52.804688 72.988281 -59.609375 68.4375 -62.734375 C 63.894531 -65.859375 56.210938 -67.421875 45.390625 -67.421875 L 36.609375 -67.421875 L 36.609375 -34.734375 C 43.222656 -34.734375 48.285156 -36.46875 51.796875 -39.9375 C 55.304688 -43.414062 57.359375 -48.957031 57.953125 -56.5625 L 59.78125 -56.5625 L 59.78125 -11.015625 L 57.953125 -11.015625 C 57.359375 -18.617188 55.304688 -24.15625 51.796875 -27.625 C 48.285156 -31.101562 43.222656 -32.84375 36.609375 -32.84375 Z M 36.609375 -32.84375"></path></g></g></g><g fill-opacity="1" fill="#2a555a"><g transform="translate(714.770379, 71.938315)"><g><path d="M 1.296875 -69.265625 L 45.796875 -69.265625 L 45.796875 -67.328125 L 41.53125 -67.328125 C 38.613281 -67.328125 36.675781 -66.910156 35.71875 -66.078125 C 34.757812 -65.253906 34.28125 -64.164062 34.28125 -62.8125 C 34.28125 -61.882812 35.097656 -60.269531 36.734375 -57.96875 C 38.367188 -55.675781 40.828125 -52.378906 44.109375 -48.078125 L 54.875 -33.234375 L 71.734375 -55.71875 C 72.335938 -56.738281 72.726562 -57.554688 72.90625 -58.171875 C 73.09375 -58.785156 73.203125 -59.4375 73.234375 -60.125 C 73.234375 -62.738281 72.15625 -64.59375 70 -65.6875 C 67.851562 -66.78125 64.132812 -67.328125 58.84375 -67.328125 L 58.84375 -69.265625 L 94.5625 -69.265625 L 94.5625 -67.328125 C 91.6875 -67.328125 88.3125 -66.359375 84.4375 -64.421875 C 80.570312 -62.484375 76.9375 -59.269531 73.53125 -54.78125 L 55.625 -30.8125 L 55.625 -18.265625 C 55.625 -11.117188 56.742188 -6.609375 58.984375 -4.734375 C 61.234375 -2.867188 65.867188 -1.9375 72.890625 -1.9375 L 72.890625 0 L 23.46875 0 L 23.46875 -1.9375 C 31.832031 -1.9375 36.859375 -3.179688 38.546875 -5.671875 C 40.234375 -8.171875 41.078125 -12.429688 41.078125 -18.453125 L 41.078125 -29.328125 L 18.703125 -59.734375 C 17.347656 -61.679688 15.40625 -63.429688 12.875 -64.984375 C 10.34375 -66.546875 6.484375 -67.328125 1.296875 -67.328125 Z M 1.296875 -69.265625"></path></g></g></g></svg>