<svg xmlns="http://www.w3.org/2000/svg" fill="none" viewBox="0 0 16 22" height="22" width="16">
<path stroke-width="0.3" stroke="#3F6A62" fill="#3F6A62" d="M7.4189 20.8223C7.55539 21.027 7.78519 21.15 8.03125 21.15C8.27728 21.15 8.50709 21.0271 8.64359 20.8223C9.08282 20.1634 9.59145 19.451 10.1268 18.7011C11.2684 17.102 12.5315 15.3326 13.5029 13.5495C14.6474 11.4489 15.2125 9.64191 15.2125 8.03125C15.2125 4.07138 11.9911 0.85 8.03125 0.85C4.07138 0.85 0.85 4.07138 0.85 8.03125C0.85 9.64191 1.41514 11.4489 2.55957 13.5495C3.53057 15.3318 4.79585 17.1043 5.93789 18.7042C6.47292 19.4537 6.9809 20.1653 7.4189 20.8223ZM8.03125 2.32187C11.1793 2.32187 13.7406 4.88323 13.7406 8.03125C13.7406 9.37081 13.2467 10.9433 12.2104 12.8454C11.282 14.5496 10.0534 16.2706 8.92913 17.8453C8.61907 18.2796 8.31694 18.7028 8.03125 19.1114C7.7456 18.7028 7.4435 18.2797 7.13345 17.8454C6.00929 16.2708 4.78059 14.5497 3.85207 12.8454C2.8158 10.9433 2.32187 9.37081 2.32187 8.03125C2.32187 4.88323 4.88323 2.32187 8.03125 2.32187Z"></path>
<path stroke-width="0.3" stroke="#3F6A62" fill="#3F6A62" d="M8.03125 11.6969C10.0526 11.6969 11.6969 10.0526 11.6969 8.03125C11.6969 6.00989 10.0526 4.36562 8.03125 4.36562C6.00989 4.36562 4.36562 6.00989 4.36562 8.03125C4.36562 10.0526 6.00989 11.6969 8.03125 11.6969ZM8.03125 5.8375C9.24075 5.8375 10.225 6.82175 10.225 8.03125C10.225 9.24075 9.24075 10.225 8.03125 10.225C6.82175 10.225 5.8375 9.24075 5.8375 8.03125C5.8375 6.82175 6.82175 5.8375 8.03125 5.8375Z"></path>
</svg>
