<svg xmlns="http://www.w3.org/2000/svg" fill="none" viewBox="0 0 20 20" height="20" width="20">
<path fill="#3F6A62" d="M10 0C4.48333 0 0 4.48333 0 10C0 15.5167 4.48333 20 10 20C15.5167 20 20 15.5167 20 10C20 4.48333 15.5167 0 10 0ZM10 18.3333C5.4 18.3333 1.66667 14.6 1.66667 10C1.66667 5.4 5.4 1.66667 10 1.66667C14.6 1.66667 18.3333 5.4 18.3333 10C18.3333 14.6 14.6 18.3333 10 18.3333Z"></path>
<path fill="#3F6A62" d="M10.7166 4.25001C9.11656 3.85001 7.33322 4.86667 6.84989 6.43334C6.69989 6.88334 6.94989 7.35001 7.38322 7.48334C7.81656 7.61667 8.28322 7.38334 8.43322 6.93334C8.66656 6.20001 9.56656 5.68334 10.3332 5.86667C11.0832 6.05001 11.6499 6.93334 11.4999 7.70001C11.3666 8.46667 10.5499 9.08334 9.76656 8.98334C9.53322 8.95001 9.28322 9.03334 9.11656 9.18334C8.93322 9.35001 8.83322 9.56667 8.83322 9.81667L8.81656 12.4167C8.81656 12.8833 9.18322 13.25 9.64989 13.25C10.1166 13.25 10.4832 12.8833 10.4832 12.4167L10.4999 10.6C11.7832 10.35 12.9166 9.30001 13.1499 7.98334C13.4499 6.36667 12.3332 4.65001 10.7166 4.25001Z"></path>
<path fill="#3F6A62" d="M9.6835 13.9833H9.66683C9.21683 13.9833 8.85016 14.3667 8.8335 14.8167C8.8335 14.8333 8.8335 14.9833 8.8335 15C8.8335 15.45 9.20016 15.75 9.65016 15.7667H9.66683C10.1168 15.7667 10.4835 15.35 10.5002 14.9C10.5002 14.8833 10.5002 14.7833 10.5002 14.7667C10.4835 14.3167 10.1335 13.9833 9.6835 13.9833Z"></path>
</svg>
