<svg xmlns="http://www.w3.org/2000/svg" fill="none" viewBox="0 0 23 22" height="22" width="23">
<path fill="#3F6A62" d="M21.1863 14.3L18.2963 11.42C18.0727 11.1966 17.7993 11.0294 17.4986 10.932C17.1979 10.8347 16.8784 10.81 16.5663 10.86C16.2696 10.9092 15.9879 11.0247 15.742 11.1978C15.4962 11.371 15.2925 11.5973 15.1463 11.86L14.5263 12.66C14.4804 12.718 14.4229 12.7658 14.3574 12.8002C14.292 12.8347 14.22 12.855 14.1463 12.86C14.0743 12.8646 14.0022 12.8536 13.9348 12.8277C13.8675 12.8018 13.8066 12.7617 13.7563 12.71L9.31625 8.24001C9.26536 8.18704 9.22581 8.12425 9.20002 8.05547C9.17423 7.98669 9.16274 7.91338 9.16625 7.84001C9.17258 7.76795 9.19359 7.69795 9.22798 7.63432C9.26238 7.57069 9.30943 7.51477 9.36625 7.47001L10.1663 6.85001C10.429 6.70371 10.6553 6.50007 10.8284 6.25422C11.0016 6.00837 11.117 5.72665 11.1663 5.43001C11.2179 5.11634 11.1941 4.79489 11.0967 4.49229C10.9993 4.18969 10.8312 3.91466 10.6063 3.69001L7.69626 0.810006C7.16637 0.305611 6.46282 0.024292 5.73126 0.024292C4.99969 0.024292 4.29614 0.305611 3.76626 0.810006L0.656255 3.93001C-0.213745 4.79001 -0.223745 6.26001 0.656255 8.31001C1.17799 9.62938 1.92586 10.8476 2.86626 11.91L10.1263 19.17C11.1886 20.1104 12.4069 20.8583 13.7263 21.38C14.5464 21.7478 15.4284 21.9581 16.3263 22C16.6524 22.018 16.9787 21.9687 17.2849 21.8552C17.5911 21.7416 17.8707 21.5663 18.1063 21.34L21.2263 18.23C21.7394 17.7022 22.0232 16.9929 22.0157 16.2568C22.0082 15.5206 21.7101 14.8173 21.1863 14.3ZM19.7363 16.78L16.6163 19.89C16.0263 20.32 12.7363 18.89 11.5363 17.72L4.27626 10.46C3.07626 9.25001 1.67626 6.00001 2.10626 5.38001L5.21626 2.26001C5.35273 2.13492 5.53113 2.06553 5.71626 2.06553C5.90138 2.06553 6.07978 2.13492 6.21626 2.26001L9.09626 5.09001L8.09626 5.85001C7.80845 6.0748 7.57082 6.35728 7.39861 6.67931C7.2264 7.00135 7.12341 7.35583 7.09626 7.72001C7.07187 8.08753 7.12615 8.45604 7.25548 8.80092C7.38481 9.14581 7.58622 9.45914 7.84626 9.72001L12.2863 14.16C12.5456 14.4222 12.8587 14.625 13.2039 14.7545C13.5492 14.884 13.9185 14.937 14.2863 14.91C14.6504 14.8829 15.0049 14.7799 15.3269 14.6077C15.649 14.4354 15.9315 14.1978 16.1563 13.91L16.8263 13.05V13V12.91L19.7163 15.79C19.8413 15.9234 19.9125 16.0984 19.9162 16.2812C19.9199 16.464 19.8558 16.6417 19.7363 16.78Z"></path>
</svg>
